<?xml version="1.0" encoding="utf-8"?>
<svg width="323px" height="82.4px" viewBox="25.224 143.294 323.013 82.405" xmlns="http://www.w3.org/2000/svg" xmlns:xlink="http://www.w3.org/1999/xlink">
  <clipPath id="a">
    <path transform="scale(.24)" d="M0 0h1562.5v1562.5H0z" fill-rule="evenodd"/>
  </clipPath>
  <g clip-path="url(#a)" style="" transform="matrix(1, 0, 0, 0.665905, 346.516271, 34.051964)"/>
  <clipPath id="c">
    <path transform="scale(.24)" d="M357.315 597.226h828.125v343.75H357.315z" fill-rule="evenodd"/>
  </clipPath>
  <g clip-path="url(#c)">
    <path d="m172.967 173.163-2.845-2.435a285.624 285.624 0 0 0-2.845-2.426 159.554 159.554 0 0 0-5.813-4.671c-3.934-3.014-8.032-5.788-12.367-8.024-4.325-2.244-8.888-3.942-13.567-4.823-4.67-.889-9.475-.954-14.041-.148-9.167 1.621-17.427 7.146-22.396 14.782-2.506 3.797-4.23 8.08-5.007 12.517a33.673 33.673 0 0 0-.5 6.72 33.06 33.06 0 0 0 .83 6.657 32.804 32.804 0 0 0 5.534 12.053 32.874 32.874 0 0 0 9.767 8.866 32.159 32.159 0 0 0 5.987 2.758 32.347 32.347 0 0 0 10.504 1.77h.413l.351-.014.35-.013.361-.033c.241-.021.481-.04.732-.08 1.976-.256 4.096-.884 6.197-1.675 4.22-1.62 8.427-3.889 12.502-6.403 4.081-2.524 8.065-5.311 11.962-8.24a255.905 255.905 0 0 0 11.484-9.136 272.275 272.275 0 0 0 10.981-9.746l1.377-1.297 1.407-1.294a294.639 294.639 0 0 1 8.58-7.516 264.393 264.393 0 0 1 11.91-9.487c4.088-3.035 8.29-5.95 12.685-8.66a112.525 112.525 0 0 1 6.774-3.867 86.324 86.324 0 0 1 3.548-1.754 67.032 67.032 0 0 1 3.703-1.572c2.534-.966 5.178-1.81 8.074-2.288.36-.06.722-.12 1.097-.159.371-.043.737-.095 1.12-.116.383-.024.754-.066 1.147-.067l.585-.012.292-.005.264.005c1.393.02 2.787.108 4.173.268 2.773.32 5.513.923 8.161 1.8a40.688 40.688 0 0 1 7.601 3.437 41.019 41.019 0 0 1 12.31 11.023 40.291 40.291 0 0 1 6.872 14.945 40.248 40.248 0 0 1 .35 16.332 39.779 39.779 0 0 1-6.141 15.026 40.002 40.002 0 0 1-11.525 11.23 39.022 39.022 0 0 1-14.915 5.656c-2.633.416-5.29.562-7.943.422a37.38 37.38 0 0 1-7.82-1.292c-5.073-1.401-9.724-3.782-13.974-6.58-4.253-2.813-8.135-6.052-11.825-9.446-1.845-1.698-3.634-3.446-5.412-5.202l-2.657-2.64-2.64-2.656 2.928 2.336 2.911 2.352a260.692 260.692 0 0 0 5.881 4.602 124.04 124.04 0 0 0 6.033 4.332 79.036 79.036 0 0 0 6.276 3.846c2.144 1.167 4.33 2.228 6.573 3.1a42.005 42.005 0 0 0 6.849 2.031c2.315.465 4.656.698 6.98.665a36.026 36.026 0 0 0 6.939-.775c4.548-.967 8.849-2.89 12.596-5.548a33.883 33.883 0 0 0 9.305-9.952 33.182 33.182 0 0 0 4.593-12.67c.632-4.457.38-9.043-.762-13.355-2.26-8.648-8.21-16.185-15.965-20.406a32.723 32.723 0 0 0-12.515-3.857 32.748 32.748 0 0 0-3.29-.15h-.203l-.176.009-.35.014c-.23 0-.48.04-.718.056-.238.014-.49.059-.736.091-.246.028-.498.076-.751.124-2.024.367-4.147 1.068-6.251 1.919-4.222 1.728-8.406 4.06-12.468 6.614-4.066 2.57-8.033 5.383-11.918 8.335a256.593 256.593 0 0 0-11.449 9.192c-3.74 3.18-7.402 6.43-10.952 9.807a280.537 280.537 0 0 1-11.425 10.066c-3.89 3.247-7.86 6.41-11.962 9.433-4.107 3.015-8.332 5.907-12.761 8.58a105.832 105.832 0 0 1-6.835 3.8 82.703 82.703 0 0 1-3.592 1.703 63.82 63.82 0 0 1-3.76 1.502c-2.579.91-5.278 1.691-8.258 2.031-.367.05-.748.077-1.128.104l-.57.037-.585.013-.584.01-.522-.01a41.242 41.242 0 0 1-5.21-.437 40.701 40.701 0 0 1-8.099-2.064 40.722 40.722 0 0 1-7.481-3.683 41.132 41.132 0 0 1-11.946-11.41 40.441 40.441 0 0 1-6.38-15.16 40.224 40.224 0 0 1 .178-16.33 39.726 39.726 0 0 1 6.625-14.814 39.88 39.88 0 0 1 11.878-10.852 38.955 38.955 0 0 1 15.086-5.17 38.28 38.28 0 0 1 7.934-.168c2.62.207 5.216.655 7.74 1.318 5.051 1.331 9.78 3.54 14.103 6.243a71.678 71.678 0 0 1 6.22 4.396 98.1 98.1 0 0 1 5.73 4.93 144.67 144.67 0 0 1 5.355 5.274c.869.9 1.732 1.802 2.59 2.71l2.547 2.746" fill="#f7e135"/>
  </g>
  <clipPath id="d">
    <path transform="scale(.24)" d="M0 0h1562.5v1562.5H0z" fill-rule="evenodd"/>
  </clipPath>
  <g data-name="H1" clip-path="url(#d)">
    <symbol id="e">
      <path d="M.143 0H0v.714h.281C.321.714.355.706.383.69A.188.188 0 0 0 .451.627.23.23 0 0 0 .484.54.248.248 0 0 0 .45.36.188.188 0 0 0 .382.297.2.2 0 0 0 .281.273H.143V0m0 .412h.126c.02 0 .035.005.046.016a.08.08 0 0 1 .023.04.098.098 0 0 1 0 .048.08.08 0 0 1-.023.04.064.064 0 0 1-.046.016H.143v-.16z"/>
    </symbol>
    <symbol id="f">
      <path d="M.369 0a.397.397 0 0 0-.162.031.334.334 0 0 0-.184.202.407.407 0 0 0 0 .271.35.35 0 0 0 .184.202c.047.02.1.031.162.031A.39.39 0 0 0 .53.706.325.325 0 0 0 .646.622.35.35 0 0 0 .715.504a.41.41 0 0 0 0-.271A.331.331 0 0 0 .53.031.39.39 0 0 0 .369 0m0 .148c.04 0 .076.008.105.024.03.016.053.037.07.063a.241.241 0 0 1 .035.181.232.232 0 0 1-.035.086.19.19 0 0 1-.07.064.216.216 0 0 1-.105.024.216.216 0 0 1-.105-.024.19.19 0 0 1-.07-.064.248.248 0 0 1 0-.267.194.194 0 0 1 .07-.063.216.216 0 0 1 .105-.024z"/>
    </symbol>
    <symbol id="g">
      <path d="M0 .715h.143V.143H.37V0H0v.715z"/>
    </symbol>
    <use transform="matrix(53.59663009643555, 0, 0, -53.59663009643555, 25.216999429717646, 204.48800963890562)" fill="#191919" xlink:href="#e"/>
    <use transform="matrix(53.59663009643555, 0, 0, -53.59663009643555, 56.18999946400521, 205.02400513029102)" fill="#191919" xlink:href="#f"/>
    <use transform="matrix(53.59663009643555, 0, 0, -53.59663009643555, 102.91900025187431, 204.48800963890562)" fill="#191919" xlink:href="#g"/>
    <symbol id="h">
      <path d="M.249 0v.322L0 .715h.174L.32.469l.146.246h.175L.391.322V0H.249z"/>
    </symbol>
    <use transform="matrix(53.59663009643555, 0, 0, -53.59663009643555, 125.3740024175346, 204.48800963890562)" fill="#0927eb" xlink:href="#h"/>
    <symbol id="i">
      <path d="M.328.412.61.726h.045V0H.51l.001.399L.328.207.145.399V0H0v.726h.046L.328.412z"/>
    </symbol>
    <use transform="matrix(53.59663009643555, 0, 0, -53.59663009643555, 164.12199646416298, 204.48800963890562)" fill="#00bf63" xlink:href="#i"/>
    <symbol id="j">
      <path d="m0 0 .301.741h.015L.617 0H.456L.427.077H.19L.162 0H0m.242.211h.132L.309.397.242.211z"/>
    </symbol>
    <symbol id="k">
      <path d="M.213.715c.06 0 .111-.01.156-.03A.339.339 0 0 0 .547.489.387.387 0 0 0 .48.111.313.313 0 0 0 .369.03.379.379 0 0 0 .213 0H0v.715h.213m0-.143h-.07V.143h.07a.21.21 0 0 1 .102.023.183.183 0 0 1 .068.061.22.22 0 0 1 .034.085.232.232 0 0 1-.034.175.18.18 0 0 1-.068.062.21.21 0 0 1-.102.023z"/>
    </symbol>
    <symbol id="l">
      <path d="m0 .053.018.15A.304.304 0 0 1 .222.146c.021.001.04.008.054.022.015.014.022.03.02.05a.06.06 0 0 1-.023.047.175.175 0 0 1-.051.026.797.797 0 0 0-.105.048.253.253 0 0 0-.078.069.17.17 0 0 0-.029.1c0 .04.008.077.025.109a.203.203 0 0 0 .177.11.407.407 0 0 0 .178-.03L.372.559a.347.347 0 0 1-.146.03C.201.587.182.579.17.563A.081.081 0 0 1 .155.509.06.06 0 0 1 .181.463.254.254 0 0 1 .235.437a.509.509 0 0 0 .103-.05.24.24 0 0 0 .075-.071.165.165 0 0 0 .029-.098A.221.221 0 0 0 .416.11.198.198 0 0 0 .341.034.248.248 0 0 0 .226 0a.43.43 0 0 0-.133.015A.49.49 0 0 0 0 .053z"/>
    </symbol>
    <use transform="matrix(53.59663009643555, 0, 0, -53.59663009643555, 250.09500494740905, 204.48800963890562)" fill="#191919" xlink:href="#j"/>
    <use transform="matrix(53.59663009643555, 0, 0, -53.59663009643555, 288.51800967034706, 204.48800963890562)" fill="#191919" xlink:href="#k"/>
    <use transform="matrix(53.59663009643555, 0, 0, -53.59663009643555, 324.47501093857, 204.84599609443535)" fill="#191919" xlink:href="#l"/>
  </g>
  <clipPath id="m">
    <path transform="scale(.24)" d="M847.892 689.636h175v171.875h-175z" fill-rule="evenodd"/>
  </clipPath>
  <g clip-path="url(#m)">
    <path d="m229.294 165.572 13.75.046c.643 0 1.355.032 1.812.484.477.47.499 1.22.485 1.893l-.057 3.299c-.007.444-.026.923-.3 1.275-.34.444-.959.542-1.516.598-2.277.222-4.558.28-6.843.176-.399-.02-.869-.013-1.112.305-.134.174-.164.399-.191.62-.682 5.606-1.364 11.248-1.039 16.885.108 1.858.442 3.926 1.931 5.04 1.511 1.132 3.95.685 4.962-.91.437-.688.618-1.515 1.06-2.2.443-.684 1.328-1.22 2.062-.864.775.374.862 1.43.79 2.291-.286 3.37-1.477 6.812-4.013 9.05-2.536 2.238-6.6 2.913-9.352.945-2.252-1.608-3.172-4.497-3.596-7.232-1.183-7.634.4-15.39.83-23.104.01-.2.015-.41-.1-.568-.16-.217-.47-.236-.737-.236l-6.626.015c-.233 0-.498.014-.651.188-.118.131-.139.32-.156.498-.468 5.056-.938 10.112-1.409 15.17-.343 3.697-.697 7.443-1.966 10.933-.65 1.788-1.594 3.56-3.161 4.636-1.568 1.077-3.874 1.255-5.29-.016-1.388-1.246-1.502-3.441-.883-5.2.619-1.76 1.821-3.242 2.799-4.832 3.672-5.979 4.085-13.324 4.403-20.327.015-.326.007-.705-.249-.907-.152-.12-.358-.147-.552-.159a7.21 7.21 0 0 0-3.398.631 7.21 7.21 0 0 0-2.728 2.12c-.97 1.246-1.874 3.006-3.452 2.926-.388-.02-.79-.183-1.007-.507-.299-.442-.182-1.032-.038-1.545 1.31-4.647 4.091-9.924 9.167-11.06 1.815-.405 3.692-.398 5.551-.398l10.82.04z" fill="red"/>
  </g>
</svg>